<svg xmlns="http://www.w3.org/2000/svg" version="1.1" xmlns:xlink="http://www.w3.org/1999/xlink" width="512" height="512" x="0" y="0" viewBox="0 0 4000 4000" style="enable-background:new 0 0 512 512" xml:space="preserve" class=""><g><path d="M2913.043 3673.913H630.435c-209.769 0-380.435-170.666-380.435-380.435V1467.391c0-209.769 170.666-380.435 380.435-380.435H2000c42.019 0 76.087 34.068 76.087 76.087s-34.068 76.087-76.087 76.087H630.435c-125.861 0-228.261 102.4-228.261 228.261v1826.087c0 125.861 102.4 228.261 228.261 228.261h2282.609c125.861 0 228.261-102.4 228.261-228.261V2076.087c0-42.019 34.068-76.087 76.087-76.087s76.087 34.068 76.087 76.087v1217.391c-.001 209.769-170.667 380.435-380.436 380.435z" fill="#fab31e" opacity="1" data-original="#000000" class=""></path><path d="M1391.304 2304.348c-209.769 0-380.435-170.666-380.435-380.435s170.666-380.435 380.435-380.435 380.435 170.666 380.435 380.435-170.666 380.435-380.435 380.435zm0-608.696c-125.861 0-228.261 102.4-228.261 228.261s102.4 228.261 228.261 228.261 228.261-102.4 228.261-228.261-102.399-228.261-228.261-228.261z" fill="#fab31e" opacity="1" data-original="#000000" class=""></path><path d="M335.802 3096.536c-19.477 0-38.944-7.43-53.805-22.282-29.712-29.712-29.712-77.889 0-107.61l349.107-349.116c148.347-148.31 389.686-148.31 538.014 0l62.285 62.276c43.105 43.115 100.431 66.864 161.397 66.864 60.975 0 118.292-23.749 161.406-66.864l760.238-760.238c148.338-148.319 389.667-148.338 538.024 0l412.896 412.896c29.712 29.721 29.712 77.889 0 107.61-29.721 29.703-77.889 29.703-107.61 0l-412.896-412.896c-89.007-89.006-233.815-88.988-322.803 0l-760.238 760.238c-71.861 71.852-167.397 111.428-269.016 111.428-101.62 0-197.156-39.576-269.007-111.437l-62.276-62.267c-88.997-88.988-233.815-88.988-322.812 0l-349.097 349.116c-14.862 14.852-34.33 22.282-53.807 22.282zM3217.391 1847.826c-34.245 0-64.263-22.876-73.356-55.886-50.071-181.849-184.709-314.704-411.605-406.153-28.793-11.601-47.647-39.53-47.647-70.57s18.854-58.969 47.647-70.57c226.896-91.449 361.534-224.304 411.605-406.153 9.093-33.009 39.112-55.886 73.356-55.886 34.245 0 64.263 22.876 73.356 55.886 50.072 181.849 184.71 314.704 411.605 406.153 28.793 11.601 47.647 39.53 47.647 70.57s-18.854 58.969-47.647 70.57c-226.896 91.449-361.534 224.304-411.605 406.153-9.092 33.01-39.111 55.886-73.356 55.886zm-281.016-532.609c124.319 70.979 217.505 158.462 281.017 263.899 63.511-105.437 156.697-192.92 281.016-263.899-124.319-70.979-217.505-158.462-281.016-263.899-63.512 105.437-156.698 192.921-281.017 263.899zM2304.348 1239.13c-34.245 0-64.263-22.876-73.356-55.886-40.607-147.474-150.354-255.437-335.518-330.066-28.793-11.601-47.647-39.53-47.647-70.57s18.855-58.969 47.647-70.57c185.165-74.629 294.911-182.592 335.518-330.066 9.093-33.009 39.112-55.886 73.356-55.886 34.245 0 64.263 22.876 73.356 55.886 40.607 147.474 150.354 255.437 335.518 330.066 28.792 11.601 47.647 39.53 47.647 70.57s-18.855 58.969-47.647 70.57c-185.165 74.629-294.911 182.592-335.518 330.066-9.093 33.01-39.111 55.886-73.356 55.886zm-209.992-456.521c89.304 54.474 159.437 120.4 209.991 197.341 50.554-76.941 120.688-142.867 209.991-197.341-89.304-54.474-159.437-120.4-209.991-197.341-50.554 76.941-120.687 142.867-209.991 197.341z" fill="#fab31e" opacity="1" data-original="#000000" class=""></path></g></svg>