<svg xmlns="http://www.w3.org/2000/svg" version="1.1" xmlns:xlink="http://www.w3.org/1999/xlink" width="512" height="512" x="0" y="0" viewBox="0 0 60 60" style="enable-background:new 0 0 512 512" xml:space="preserve" class=""><g><g fill="#000" fill-rule="evenodd"><path d="M40 49H20a1 1 0 0 0 0 2h20a1 1 0 0 0 0-2zM40 53H28a1 1 0 0 0 0 2h12a1 1 0 0 0 0-2zM24 53h-4a1 1 0 0 0 0 2h4a1 1 0 0 0 0-2zM26 29c-.738 0-1.45.272-2 .766A2.987 2.987 0 0 0 22 29a1 1 0 0 0 0 2c.552 0 1 .448 1 1a1 1 0 0 0 2 0c0-.552.448-1 1-1a1 1 0 0 0 0-2z" fill="#fab31e" opacity="1" data-original="#000000" class=""></path><g fill-rule="nonzero"><path d="m57.512 24.753-3.182-.521a24.731 24.731 0 0 0-3.051-7.351l1.88-2.626a2.8 2.8 0 0 0-.054-3.375 24.824 24.824 0 0 0-1.9-2.086A27.723 27.723 0 0 0 49.1 6.878a2.779 2.779 0 0 0-3.349-.039l-2.63 1.883a24.711 24.711 0 0 0-7.353-3.052l-.521-3.181a2.8 2.8 0 0 0-2.428-2.34 26.3 26.3 0 0 0-5.651 0 2.793 2.793 0 0 0-2.414 2.336l-.522 3.185a24.733 24.733 0 0 0-7.351 3.052l-2.626-1.88a2.791 2.791 0 0 0-3.374.053A27.624 27.624 0 0 0 8.8 8.784a24.66 24.66 0 0 0-1.917 2.107 2.794 2.794 0 0 0-.048 3.36l1.882 2.63a24.783 24.783 0 0 0-3.047 7.351l-3.181.521A2.8 2.8 0 0 0 .15 27.18a26.548 26.548 0 0 0 0 5.655 2.8 2.8 0 0 0 2.336 2.412l3.182.521a24.783 24.783 0 0 0 3.051 7.351l-1.87 2.615A2.8 2.8 0 0 0 6.9 49.12c.556.68 1.194 1.382 1.9 2.086a32.575 32.575 0 0 0 2.109 1.916c.485.376 1.08.58 1.694.58a2.8 2.8 0 0 0 1.4-.388V56a4 4 0 0 0 4 4H42a4 4 0 0 0 4-4v-2.687c.99.578 2.232.491 3.132-.218a31.769 31.769 0 0 0 2.075-1.889 28.469 28.469 0 0 0 1.915-2.106 2.79 2.79 0 0 0 .039-3.35l-1.882-2.63a24.731 24.731 0 0 0 3.051-7.351l3.181-.521a2.8 2.8 0 0 0 2.339-2.428 26.6 26.6 0 0 0 0-5.651 2.794 2.794 0 0 0-2.338-2.416zm-23.983 14.3-1.99-2.327a2.067 2.067 0 0 0-3.079 0l-1.931 2.326-1.99-2.327A2 2 0 0 0 23 36a1.958 1.958 0 0 0-1.5.673L16 42.489V24a2 2 0 0 1 2-2h24a2 2 0 0 1 2 2v19.247l-5.461-6.526a2.067 2.067 0 0 0-3.079 0zM42 20H18a4 4 0 0 0-4 4v16.219c-5.093-7.95-3.576-18.433 3.561-24.613s17.73-6.182 24.87-.004 8.66 16.66 3.569 24.612V24a4 4 0 0 0-4-4zm0 38H18a2 2 0 0 1-2-2V45.4l7.01-7.388 2.77 3.239 2.054 2.4a1 1 0 1 0 1.52-1.3l-1.5-1.758 2.16-2.581 2.77 3.239 2.048 2.4a1 1 0 0 0 1.52-1.3l-1.5-1.76L37 38l7 8.361V56a2 2 0 0 1-2 2zm15.862-25.4a.81.81 0 0 1-.673.668l-3.851.631a1 1 0 0 0-.817.785 22.783 22.783 0 0 1-3.284 7.916 1 1 0 0 0 .023 1.13l2.285 3.2a.788.788 0 0 1 .01.926 26.083 26.083 0 0 1-1.763 1.938 30.216 30.216 0 0 1-1.915 1.746.8.8 0 0 1-.964 0L46 50.881V43.6c7.24-8.5 6.567-21.177-1.532-28.862-8.1-7.685-20.795-7.692-28.903-.017C7.457 22.397 6.77 35.074 14 43.582v7.3l-.917.656a.787.787 0 0 1-.926.028 28.791 28.791 0 0 1-1.949-1.773 26.477 26.477 0 0 1-1.747-1.916.8.8 0 0 1 0-.963l2.276-3.18a1 1 0 0 0 .023-1.13 22.766 22.766 0 0 1-3.285-7.915 1 1 0 0 0-.817-.785l-3.848-.632a.806.806 0 0 1-.67-.655 24.5 24.5 0 0 1 0-5.222.786.786 0 0 1 .672-.667l3.85-.628a1 1 0 0 0 .817-.784 22.763 22.763 0 0 1 3.285-7.916 1 1 0 0 0-.023-1.13l-2.279-3.187a.8.8 0 0 1-.017-.937c.55-.68 1.138-1.327 1.763-1.938a25.934 25.934 0 0 1 1.916-1.746.8.8 0 0 1 .963 0l3.18 2.275a1 1 0 0 0 1.131.023 22.75 22.75 0 0 1 7.915-3.285 1 1 0 0 0 .784-.817l.631-3.851a.783.783 0 0 1 .654-.671 24.514 24.514 0 0 1 5.223 0c.348.05.62.326.667.674l.632 3.85a1 1 0 0 0 .784.817 22.75 22.75 0 0 1 7.912 3.287 1 1 0 0 0 1.13-.023l3.183-2.278a.794.794 0 0 1 .94-.018c.679.558 1.328 1.15 1.947 1.773.617.605 1.2 1.245 1.744 1.917a.8.8 0 0 1-.012.952l-2.275 3.18a1 1 0 0 0-.023 1.13 22.783 22.783 0 0 1 3.284 7.915 1 1 0 0 0 .817.785l3.852.631a.783.783 0 0 1 .67.655 24.583 24.583 0 0 1 0 5.221z" fill="#fab31e" opacity="1" data-original="#000000" class=""></path><path d="M41 29a5 5 0 1 0-10 0 5 5 0 0 0 10 0zm-8 0a3 3 0 1 1 6 0 3 3 0 0 1-6 0z" fill="#fab31e" opacity="1" data-original="#000000" class=""></path></g></g></g></svg>