<svg xmlns="http://www.w3.org/2000/svg" version="1.1" xmlns:xlink="http://www.w3.org/1999/xlink" width="512" height="512" x="0" y="0" viewBox="0 0 32 32" style="enable-background:new 0 0 512 512" xml:space="preserve" class=""><g><path d="M16.03 16c1.93 0 3.5-1.57 3.5-3.5S17.96 9 16.03 9s-3.5 1.57-3.5 3.5 1.57 3.5 3.5 3.5zm0-5c.83 0 1.5.67 1.5 1.5s-.67 1.5-1.5 1.5-1.5-.67-1.5-1.5.67-1.5 1.5-1.5zM28.5 1H26c-.55 0-1 .45-1 1s.45 1 1 1h2.5c.28 0 .5.22.5.5V6c0 .55.45 1 1 1s1-.45 1-1V3.5A2.5 2.5 0 0 0 28.5 1zM6 29H3.5c-.28 0-.5-.22-.5-.5V26c0-.55-.45-1-1-1s-1 .45-1 1v2.5A2.5 2.5 0 0 0 3.5 31H6c.55 0 1-.45 1-1s-.45-1-1-1z" fill="#fab31e" opacity="1" data-original="#000000" class=""></path><path d="M30 25h-2.97V6c0-.55-.45-1-1-1h-19V2c0-.55-.45-1-1-1s-1 .45-1 1v3H2.06c-.55 0-1 .45-1 1s.45 1 1 1h2.97v19c0 .55.45 1 1 1h19v3c0 .55.45 1 1 1s1-.45 1-1v-3H30c.55 0 1-.45 1-1s-.45-1-1-1zM25.03 7v12.79l-2.78-3.14c-.38-.43-1.12-.43-1.5 0L16 22.01l-4.75-5.36c-.38-.43-1.12-.43-1.5 0l-2.72 3.07V7zm-18 15.73 3.47-3.91 4.16 4.7L13.35 25H7.03zM16.02 25l5.48-6.18 3.53 3.99v2.2h-9.01z" fill="#fab31e" opacity="1" data-original="#000000" class=""></path></g></svg>