<svg xmlns="http://www.w3.org/2000/svg" version="1.1" xmlns:xlink="http://www.w3.org/1999/xlink" width="512" height="512" x="0" y="0" viewBox="0 0 512 512" style="enable-background:new 0 0 512 512" xml:space="preserve" class=""><g><path d="M119.69 144.81c-4.07-4.07-9.26-6.22-15.01-6.22h-85.2C8.74 138.59 0 147.31 0 158.03v195.93c0 10.72 8.74 19.45 19.47 19.45h136.4c10.74 0 19.47-8.72 19.47-19.45v-144.7c0-5.75-2.15-10.93-6.22-15.01zm28.34 50.95h-29.88v-29.88zm7.85 161.66H19.48c-1.92 0-3.49-1.55-3.49-3.46V158.03c0-1.91 1.56-3.46 3.49-3.46h82.69v49.18c0 4.42 3.58 7.99 7.99 7.99h49.21v142.21c0 1.92-1.57 3.47-3.49 3.47zm-18.28-29c0 4.41-3.58 7.99-7.99 7.99H45.75c-4.42 0-7.99-3.58-7.99-7.99s3.58-7.99 7.99-7.99h83.85c4.42 0 8 3.58 8 7.99zm0-43.82c0 4.41-3.58 7.99-7.99 7.99H45.75c-4.42 0-7.99-3.58-7.99-7.99s3.58-7.99 7.99-7.99h83.85c4.42 0 8 3.58 8 7.99zm0-43.82c0 4.41-3.58 7.99-7.99 7.99H45.75c-4.42 0-7.99-3.58-7.99-7.99s3.58-7.99 7.99-7.99h83.85c4.42-.01 8 3.57 8 7.99zm368.17-46.53-49.44-49.44c-4.07-4.07-9.26-6.22-15.01-6.22h-85.21c-10.72 0-19.45 8.72-19.45 19.45v195.93c0 10.72 8.72 19.45 19.45 19.45h136.43c10.72 0 19.45-8.72 19.45-19.45V209.26c.01-5.75-2.15-10.94-6.22-15.01zm-21.09 1.51H454.8v-29.88zm7.87 161.66H356.12c-1.91 0-3.46-1.55-3.46-3.46V158.03c0-1.91 1.55-3.46 3.46-3.46h82.69v49.18c0 4.42 3.58 7.99 7.99 7.99h49.21v142.21c0 1.92-1.55 3.47-3.46 3.47zm-18.31-29c0 4.41-3.58 7.99-7.99 7.99h-83.82c-4.42 0-7.99-3.58-7.99-7.99s3.58-7.99 7.99-7.99h83.82c4.41 0 7.99 3.58 7.99 7.99zm0-43.82c0 4.41-3.58 7.99-7.99 7.99h-83.82c-4.42 0-7.99-3.58-7.99-7.99s3.58-7.99 7.99-7.99h83.82c4.41 0 7.99 3.58 7.99 7.99zm0-43.82c0 4.41-3.58 7.99-7.99 7.99h-83.82c-4.42 0-7.99-3.58-7.99-7.99s3.58-7.99 7.99-7.99h83.82c4.41-.01 7.99 3.57 7.99 7.99zm-158.91 32.23c0 4.42-3.58 7.99-7.99 7.99h-74.46l8.35 6.42c3.5 2.69 4.16 7.71 1.47 11.21a7.976 7.976 0 0 1-6.35 3.12c-1.7 0-3.41-.54-4.86-1.65l-27.01-20.75a7.99 7.99 0 0 1 4.87-14.33h97.99c4.41-.01 7.99 3.57 7.99 7.99zm-113.98-34.02c0-4.42 3.58-7.99 7.99-7.99h74.44l-8.36-6.41c-3.5-2.69-4.16-7.71-1.48-11.21 2.69-3.5 7.71-4.16 11.21-1.48l27.04 20.75c2.72 2.08 3.8 5.67 2.7 8.91s-4.14 5.42-7.57 5.42h-97.99c-4.4.01-7.98-3.57-7.98-7.99z" fill="#fab31e" opacity="1" data-original="#000000"></path></g></svg>